HIERARCHY
ROOT Hips
{
	OFFSET -3.958830 18.904000 13.208200
	CHANNELS 6 Xposition Yposition Zposition Zrotation Yrotation Xrotation 
	JOINT LHipJoint
	{
		OFFSET 0.000000 0.000000 0.000000
		CHANNELS 3 Zrotation Yrotation Xrotation
		JOINT LeftUpLeg
		{
			OFFSET 1.800000 -1.400000 0.085000
			CHANNELS 3 Zrotation Yrotation Xrotation
			JOINT LeftLeg
			{
				OFFSET 2.215000 -6.000000 0.000000
				CHANNELS 3 Zrotation Yrotation Xrotation
				JOINT LeftFoot
				{
					OFFSET 2.500000 -6.900000 0.000000
					CHANNELS 3 Zrotation Yrotation Xrotation
					JOINT LeftToeBase
					{
						OFFSET 0.200000 -0.500000 1.950000
						CHANNELS 3 Zrotation Yrotation Xrotation
						End Site
						{
							OFFSET 0.000000 0.000000 0.000000
						}
					}
				}
			}
		}
	}
	JOINT RHipJoint
	{
		OFFSET 0.000000 0.000000 0.000000
		CHANNELS 3 Zrotation Yrotation Xrotation
		JOINT RightUpLeg
		{
			OFFSET -1.800000 -1.400000 0.085000
			CHANNELS 3 Zrotation Yrotation Xrotation
			JOINT RightLeg
			{
				OFFSET -2.215000 -6.000000 0.000000
				CHANNELS 3 Zrotation Yrotation Xrotation
				JOINT RightFoot
				{
					OFFSET -2.500000 -6.900000 0.000000
					CHANNELS 3 Zrotation Yrotation Xrotation
					JOINT RightToeBase
					{
						OFFSET -0.200000 -0.500000 1.950000
						CHANNELS 3 Zrotation Yrotation Xrotation
						End Site
						{
							OFFSET 0.000000 0.000000 0.000000
						}
					}
				}
			}
		}
	}
	JOINT LowerBack
	{
		OFFSET 0.000000 0.000000 0.000000
		CHANNELS 3 Zrotation Yrotation Xrotation
		JOINT Spine
		{
			OFFSET -0.087000 1.940000 -0.288900
			CHANNELS 3 Zrotation Yrotation Xrotation
			JOINT Spine1
			{
				OFFSET 0.000000 1.950000 0.060000
				CHANNELS 3 Zrotation Yrotation Xrotation
				JOINT Neck
				{
					OFFSET 0.000000 0.000000 0.000000
					CHANNELS 3 Zrotation Yrotation Xrotation
					JOINT Neck1
					{
						OFFSET 0.000000 1.600000 0.340000
						CHANNELS 3 Zrotation Yrotation Xrotation
						JOINT Head
						{
							OFFSET 0.000000 1.667000 -0.240000
							CHANNELS 3 Zrotation Yrotation Xrotation
							End Site
							{
								OFFSET 0.000000 0.000000 0.000000
							}
						}
					}
				}
				JOINT LeftShoulder
				{
					OFFSET 0.000000 0.000000 0.000000
					CHANNELS 3 Zrotation Yrotation Xrotation
					JOINT LeftArm
					{
						OFFSET 2.700000 1.550000 -0.730000
						CHANNELS 3 Zrotation Yrotation Xrotation
						JOINT LeftForeArm
						{
							OFFSET 5.450000 0.000000 0.000000
							CHANNELS 3 Zrotation Yrotation Xrotation
							JOINT LeftHand
							{
								OFFSET 3.450000 0.000000 0.000000
								CHANNELS 3 Zrotation Yrotation Xrotation
								JOINT LeftHandIndex1
								{
									OFFSET 0.750000 0.000000 0.000000
									CHANNELS 3 Zrotation Yrotation Xrotation
									End Site
									{
										OFFSET 0.000000 0.000000 0.000000
									}
								}
							}
						}
					}
				}
				JOINT RightShoulder
				{
					OFFSET 0.000000 0.000000 0.000000
					CHANNELS 3 Zrotation Yrotation Xrotation
					JOINT RightArm
					{
						OFFSET -2.700000 1.550000 -0.730000
						CHANNELS 3 Zrotation Yrotation Xrotation
						JOINT RightForeArm
						{
							OFFSET -5.450000 0.000000 0.000000
							CHANNELS 3 Zrotation Yrotation Xrotation
							JOINT RightHand
							{
								OFFSET -3.450000 0.000000 0.000000
								CHANNELS 3 Zrotation Yrotation Xrotation
								JOINT RightHandIndex1
								{
									OFFSET -0.750000 0.000000 0.000000
									CHANNELS 3 Zrotation Yrotation Xrotation
									End Site
									{
										OFFSET 0.000000 0.000000 0.000000
									}
								}
							}
						}
					}
				}
			}
		}
	}
}
MOTION
Frames: 7
Frame Time: 0.016667
-1.098770 16.918360 -3.806000 -5.073722 5.057475 1.675051 -15.104219 12.800639 2.083456 1.190908 -0.548353 8.173972 1.585874 7.021484 33.624447 -0.032909 7.055952 2.248933 1.105170 0.751840 1.039130 18.708233 -8.872900 5.021801 -3.422991 11.477240 -49.478707 12.530518 -13.288489 48.990299 -1.367158 -7.665124 1.694504 0.472580 -0.153360 0.288190 -4.372670 -2.401287 -7.940772 16.550462 -8.015421 15.029401 -5.459258 -7.704877 19.592278 1.682647 -0.060062 -8.601519 -3.623585 3.335469 43.056787 -10.737130 6.394270 -30.057910 -14.789891 -8.550572 0.547277 20.629317 8.454353 0.761099 151.380064 -32.171390 -98.893175 -3.578246 3.123761 0.815660 -0.059980 0.308590 0.268320 12.032732 4.184905 7.947108 0.972901 -19.755346 3.370588 -168.936205 23.467580 -150.999656 1.927130 -2.177795 -0.107830 0.250070 -0.426550 -0.414770 
-1.111910 16.876400 -3.801990 -5.029443 5.448665 1.926773 -15.144003 12.871279 2.089698 1.602760 -0.596859 8.579408 1.591834 6.987849 32.875343 0.014634 6.992051 2.287610 1.045350 0.678990 0.969390 18.663283 -8.794510 5.072132 -3.784863 11.430357 -49.909737 13.126666 -13.668425 49.234308 -1.372391 -7.811414 1.671789 0.409210 -0.129770 0.298510 -4.250415 -2.626791 -8.017955 15.703594 -7.834658 15.285261 -4.472817 -7.853516 18.758179 1.683610 0.123791 -8.989580 -3.320850 3.424149 43.261120 -10.194690 6.631750 -28.689420 -14.259971 -9.156675 1.076859 20.410506 7.880012 0.806199 150.684030 -33.793959 -99.538976 -3.593462 3.138123 0.796560 -0.050450 0.280920 0.273820 11.475142 4.872571 7.912793 0.233862 -19.728980 2.430888 -166.892337 21.878154 -139.131588 1.910143 -2.176609 -0.097720 0.207230 -0.406180 -0.395850 
-1.129830 16.805920 -3.788390 -4.921961 6.033597 2.648853 -15.195910 12.956455 2.097212 2.282925 -0.497670 9.389363 1.364510 6.878929 30.310227 0.098603 6.680150 2.416930 0.991810 0.618760 0.910270 18.611383 -8.638256 5.178951 -4.630765 11.306159 -51.050367 14.567649 -14.442097 49.342289 -1.407452 -7.989778 1.642322 0.317720 -0.142770 0.285200 -4.099943 -2.981298 -8.134440 14.694764 -7.668873 15.035898 -2.941437 -8.042672 17.315990 1.568109 -0.523182 -9.713245 -4.980956 3.878509 44.708015 -8.222940 6.209470 -27.882380 -13.715555 -9.951973 2.168186 19.989746 8.136578 1.383078 150.430497 -38.745756 -105.912373 -3.571359 3.159369 0.777480 -0.095710 0.279120 0.276120 11.094536 6.556935 7.790611 -2.855958 -21.056154 0.940753 -164.896170 21.115530 -128.811437 1.958470 -2.176967 -0.052750 0.155400 -0.411380 -0.356820 
-1.144580 16.825670 -3.775020 -4.651518 5.571952 2.212093 -15.258820 13.112252 2.244989 2.584964 0.087661 11.216905 0.691945 7.021767 27.235692 0.204572 6.525809 2.521270 0.828820 0.418130 0.782000 18.519202 -8.562721 5.142238 -5.189495 10.930874 -50.171712 15.728434 -14.907818 48.654956 -1.376165 -7.978567 1.696723 0.147960 -0.097280 0.267890 -3.870942 -3.411676 -8.286641 13.541158 -7.625707 17.118932 -2.155716 -8.035432 16.340900 1.651697 -1.822088 -11.052579 -7.893383 4.753483 44.930056 -6.925310 5.900320 -27.588730 -13.104793 -10.196030 3.252902 16.691205 8.325803 1.303038 151.920628 -42.789478 -116.155208 -3.560772 3.161290 0.792980 -0.120860 0.242240 0.248100 10.242182 8.174889 8.854454 -1.408012 -20.400706 0.388979 -165.513298 22.082025 -134.779795 2.020985 -2.080119 -0.061210 0.141120 -0.334100 -0.329730 
-1.155650 16.946200 -3.781530 -4.761051 5.506227 1.418078 -15.303378 13.354721 2.373868 3.138512 0.286472 11.789610 0.209535 7.233310 25.948151 0.362147 6.473477 2.575765 0.626330 0.210700 0.594300 18.414139 -8.646742 4.960383 -5.053430 10.015749 -47.877284 16.695429 -14.770377 45.903085 -1.241798 -7.554664 1.888834 -0.046540 -0.032540 0.263210 -3.659662 -3.781432 -8.337288 12.630960 -7.964572 19.959291 -1.693775 -8.343320 16.400865 1.940556 -2.920207 -13.204133 -10.080759 5.741886 43.837317 -5.767270 6.152040 -26.337230 -11.379695 -10.081754 4.915945 8.077348 8.089935 0.060482 153.938232 -46.925642 -129.680766 -3.532103 3.208402 0.768530 -0.122910 0.201040 0.221880 7.922976 9.211524 10.925387 6.028459 -16.149537 1.328684 -168.847514 23.808428 -154.071374 2.110719 -1.977616 -0.043110 0.106370 -0.238060 -0.271930 
-1.158530 17.137940 -3.783820 -4.425718 5.501245 0.663656 -15.329121 13.629176 2.513430 2.803623 0.489817 11.327224 0.664403 7.130096 26.308976 0.487838 6.418391 2.608610 0.518520 0.104510 0.518040 18.302679 -8.923186 4.628868 -4.863142 8.485721 -44.103218 17.350732 -13.913110 41.273471 -1.050778 -6.736313 2.177956 -0.174570 0.000250 0.273300 -3.478604 -3.978466 -8.287101 11.225702 -8.004547 22.273512 -1.498307 -8.231515 16.335929 2.151120 -3.265075 -14.913548 -10.589452 6.019500 42.939076 -4.313530 6.244990 -24.117140 -9.371049 -10.494958 6.634516 -3.136954 7.191907 -2.104325 158.556578 -54.368060 -149.892583 -3.458005 3.305603 0.738230 -0.121900 0.198500 0.198970 5.518699 10.389006 12.337416 16.364434 -11.423618 0.594964 -174.422415 32.567674 173.768770 2.169886 -1.964838 -0.000880 0.077600 -0.197320 -0.227860 
-1.176250 17.364510 -3.762480 -3.366798 5.399134 0.403937 -15.380091 13.932390 2.656639 1.878452 0.592007 9.770250 1.361195 6.943698 27.856156 0.474756 6.460762 2.595920 0.479820 0.054090 0.514680 18.164716 -9.273794 4.201390 -4.044213 6.921333 -39.775916 15.876296 -11.765052 35.804796 -0.767303 -5.536388 2.584636 -0.194830 0.038060 0.266800 -3.226962 -4.149854 -8.154332 8.722123 -7.336985 23.120277 -1.016113 -7.503002 16.073374 2.279661 -3.222031 -15.443275 -10.079409 5.802364 41.343460 -4.174120 6.295680 -20.829030 -7.661780 -10.896832 7.593776 -15.293283 4.297354 -4.627059 165.314113 -62.992629 -169.093120 -3.393019 3.318504 0.725730 -0.084990 0.176760 0.185120 3.583896 11.447167 12.459568 27.567589 -7.177015 -2.253183 176.275882 42.208916 144.798515 2.093629 -1.944883 -0.023250 0.098540 -0.174390 -0.234880 
